<svg width="50" height="50" viewBox="0 0 50 50" fill="none" xmlns="http://www.w3.org/2000/svg">
<g clip-path="url(#clip0_1276_2328)">
<path d="M23.6513 0C24.5142 0.490167 25.2504 1.44311 25.8298 2.25614C29.318 7.15586 29.3784 13.8372 26.008 18.8191C25.3146 19.8444 23.4809 22.4831 22.1926 20.7494C21.3336 19.594 22.4516 18.9228 23.0641 18.1108C26.2612 13.8763 26.7413 8.43068 23.6328 3.97319C22.7301 2.6788 20.6023 1.2171 22.9697 0H23.6504L23.6513 0Z" fill="white"/>
<path d="M11.1029 28.6107H44.5177C47.2921 28.6107 49.8493 31.1604 49.9214 33.9282C49.7169 37.4631 50.1775 41.2739 49.9214 44.7755C49.7111 47.6402 47.4693 49.8308 44.6209 50H5.31153C2.62085 49.8132 0.370346 47.6637 0.123968 44.9536C-0.217844 41.2064 0.266147 36.8506 0.220377 33.0653C0.688786 30.6193 3.13698 28.6107 5.60757 28.6107H8.23397C8.26319 28.6107 8.30896 28.734 8.38004 28.7086V10.8874C8.38004 10.8463 8.73841 10.2534 8.80171 10.1879C9.31492 9.66542 10.3472 9.75445 10.8136 10.2994C10.8652 10.3601 11.1038 10.7602 11.1038 10.7896V28.6098L11.1029 28.6107ZM5.24336 31.4676C3.62486 31.811 2.94124 32.9185 2.8312 34.5143C2.6452 37.2038 2.64812 41.4001 2.8312 44.0916C2.97825 46.2489 3.96375 47.1344 6.08961 47.2655H44.133C46.0982 47.1285 47.0613 46.1618 47.1976 44.1885C47.3836 41.4891 47.3982 37.1099 47.1928 34.4213C47.0642 32.7424 46.1722 31.5635 44.4261 31.4373L5.24433 31.4666L5.24336 31.4676Z" fill="white"/>
<path d="M19.9215 4.13536C22.9364 6.71142 23.2335 11.9859 21.3335 15.2986C20.72 16.369 19.1434 18.7151 17.8287 17.1233C16.8666 15.9571 18.1968 15.0629 18.7685 14.1892C20.1669 12.0543 20.1133 9.17596 18.712 7.05777C18.1443 6.19875 16.9046 5.41507 17.8151 4.24885C18.3731 3.53463 19.2632 3.57279 19.9215 4.13536Z" fill="white"/>
<path d="M14.1883 7.44351C16.021 7.06879 16.8264 9.94523 16.6238 11.3521C16.4369 12.6475 14.9011 14.8508 13.5436 13.5143C12.3935 12.3814 13.863 11.5595 13.8893 10.6771C13.9127 9.86989 12.9993 9.5891 13.1502 8.55104C13.2154 8.09805 13.7403 7.53548 14.1883 7.44351Z" fill="white"/>
<path d="M35.5836 42.9303C35.3723 43.1426 34.8951 43.3217 34.5952 43.3539C33.373 43.488 30.6785 43.4674 29.4349 43.3579C28.4737 43.2727 28.1027 42.7806 27.9771 41.8825C27.8466 40.953 27.8446 37.9826 27.9274 36.9544C27.9888 36.1952 28.2975 35.4467 29.1447 35.344C30.3542 35.1972 33.4597 35.2207 34.6965 35.341C35.5963 35.4281 35.9274 36.02 36.0033 36.8614C36.1182 38.1392 36.0997 40.3562 36.0092 41.6486C35.98 42.0703 35.8904 42.6211 35.5826 42.9293L35.5836 42.9303ZM33.1841 38.0815H30.7525V40.5225H33.1841V38.0815Z" fill="white"/>
<path d="M17.264 42.9318C17.0527 42.7195 16.8745 42.241 16.8414 41.9397C16.708 40.7138 16.7274 38.0076 16.8375 36.7602C16.9018 36.0274 17.2991 35.4354 18.0577 35.3484C19.3061 35.2055 22.3406 35.2202 23.6075 35.3435C24.3233 35.4129 24.7537 35.8424 24.8238 36.5645C24.9465 37.8344 24.9679 40.9907 24.8209 42.2352C24.7401 42.9151 24.0399 43.3045 23.4118 43.3603C22.1692 43.4709 19.4736 43.4904 18.2515 43.3564C17.9515 43.3231 17.4744 43.1441 17.263 42.9328L17.264 42.9318ZM22.0952 38.0829H19.6635V40.524H22.0952V38.0829Z" fill="white"/>
<path d="M6.17385 35.6754C6.32966 35.5179 6.64031 35.374 6.86819 35.3466C8.10884 35.196 11.2436 35.2253 12.5173 35.3447C13.1971 35.4083 13.6509 35.8887 13.7288 36.5696C13.869 37.8014 13.8544 40.7923 13.7336 42.0427C13.6616 42.7862 13.1542 43.2764 12.4161 43.3566C11.1842 43.4887 8.40391 43.4779 7.15936 43.3605C6.39296 43.2881 5.84178 42.8244 5.75219 42.0387C5.61488 40.8373 5.62754 37.8806 5.74732 36.6635C5.77945 36.3417 5.94695 35.9063 6.17385 35.6764V35.6754ZM11.005 38.0832H8.57335L8.47597 40.5242H11.005V38.0832Z" fill="white"/>
<path d="M41.5296 38.0061C43.1763 37.8838 43.4091 40.5313 41.6922 40.6262C39.9014 40.726 39.8332 38.1323 41.5296 38.0061Z" fill="white"/>
</g>
<defs>
<clipPath id="clip0_1276_2328">
<rect width="50" height="50" fill="white"/>
</clipPath>
</defs>
</svg>
