<svg width="48" height="50" viewBox="0 0 48 50" fill="none" xmlns="http://www.w3.org/2000/svg">
<g clip-path="url(#clip0_1276_2300)">
<path d="M11.6931 28.1655C12.9016 28.0429 14.0378 28.5178 14.7779 29.4663L23.3741 44.9383C24.3335 47.0735 22.8845 49.5244 20.5441 49.709L3.55391 49.7048C1.21913 49.3947 -0.129392 47.144 0.794619 44.9383C3.71098 40.1169 6.09671 34.7247 9.06402 29.9638C9.67955 28.9773 10.4861 28.2867 11.6931 28.1641V28.1655ZM11.8375 30.4078C11.4356 30.4895 11.2177 30.77 11.0182 31.0899C8.13717 35.7183 5.83493 40.947 2.97517 45.6148C2.45303 46.3815 2.89734 47.4146 3.84965 47.4653H20.3191C21.0563 47.4287 21.5134 46.7987 21.4016 46.0813L12.8747 30.6897C12.5464 30.4698 12.2506 30.3246 11.8375 30.4078Z" fill="white"/>
<path d="M11.2832 41.1476C11.146 41.0109 10.979 40.6572 10.955 40.4627C11.1163 38.863 10.7427 36.8519 10.9635 35.3016C11.1403 34.0557 13.011 34.0458 13.2077 35.3002C13.4482 36.8279 13.0421 38.942 13.2077 40.5317C13.0308 41.4055 11.9299 41.7889 11.2832 41.1476Z" fill="white"/>
<path d="M11.2825 44.89C10.1774 43.7921 11.9419 42.2249 12.9112 43.3045C13.8805 44.384 12.2844 45.885 11.2825 44.89Z" fill="white"/>
<path d="M39.8182 30.7602H21.8361C21.9153 31.2999 21.6833 32.2118 21.9153 32.6811C22.0144 32.8812 23.5299 33.965 23.8482 34.2751C27.0773 37.4222 29.2848 41.9759 29.5508 46.5056C29.6286 47.8233 29.8678 50.5434 27.7693 49.8796C26.5566 49.4948 27.0703 47.5062 26.9726 46.5154C26.5552 42.2436 24.7058 38.499 21.5177 35.638C20.847 35.0362 19.9612 34.6176 19.3881 33.9214C19.1773 33.4351 19.1773 29.3776 19.3881 28.8843C19.5621 28.4798 20.0319 28.2092 20.4678 28.2007L38.8956 28.1655C48.1131 21.9643 46.4575 7.58175 36.0486 3.57493C25.1076 -0.640475 14.0733 9.25467 17.2613 20.5254C17.516 21.4273 18.8178 23.8951 18.7825 24.4349C18.7117 25.4821 17.2415 25.9993 16.4661 25.1551C16.0076 24.6562 15.1161 22.3448 14.8912 21.6077C10.8654 8.41892 23.4747 -3.62551 36.5297 1.01412C48.2348 5.17456 51.2572 20.3633 42.252 28.7927L42.2676 33.9185C42.0865 34.3357 40.6007 35.2208 40.138 35.6351C36.9514 38.4976 35.1019 42.2394 34.6831 46.5126C34.5869 47.4893 35.0694 49.3652 33.9982 49.8274C31.3578 50.9662 32.1162 46.1377 32.3157 44.796C32.9058 40.8554 34.959 37.036 37.806 34.2737C38.1655 33.9256 39.6059 32.9574 39.7347 32.6769C39.9654 32.1723 39.7418 31.3211 39.8168 30.7602H39.8182Z" fill="white"/>
<path d="M38.1678 15.4402C40.0498 15.0315 40.3752 17.6149 38.898 17.9362C37.016 18.3449 36.6905 15.7615 38.1678 15.4402Z" fill="white"/>
<path d="M33.0321 19.2781C34.9141 18.8694 35.2395 21.4527 33.7622 21.7741C31.8802 22.1828 31.5548 19.5994 33.0321 19.2781Z" fill="white"/>
<path d="M39.453 20.5554C41.335 20.1467 41.6604 22.7301 40.1831 23.0514C38.3011 23.4601 37.9757 20.8768 39.453 20.5554Z" fill="white"/>
<path d="M30.4618 24.3933C32.3437 23.9846 32.6692 26.568 31.1919 26.8893C29.3099 27.298 28.9845 24.7147 30.4618 24.3933Z" fill="white"/>
<path d="M35.6004 24.3933C37.4824 23.9846 37.8079 26.568 36.3306 26.8893C34.4486 27.298 34.1231 24.7147 35.6004 24.3933Z" fill="white"/>
</g>
<defs>
<clipPath id="clip0_1276_2300">
<rect width="47" height="50" fill="white" transform="translate(0.5)"/>
</clipPath>
</defs>
</svg>
