<svg width="58" height="50" viewBox="0 0 58 50" fill="none" xmlns="http://www.w3.org/2000/svg">
<g clip-path="url(#clip0_1276_2318)">
<path d="M57.5004 42.7369C56.8104 45.6742 53.3435 46.8348 50.7985 47.6169C44.8445 49.4455 38.4859 49.7845 32.2956 49.9507C24.2025 50.1688 8.36392 49.9428 2.64631 43.2466C-1.3947 38.5147 0.752329 31.4716 5.09544 27.7896C8.59356 24.823 13.2611 23.3764 17.6577 22.4225L17.6644 2.52063C18.3277 -1.28571 23.4846 -0.568067 23.3575 3.24392L34.6221 7.89674C36.3723 8.98846 35.7971 11.1414 33.9087 11.6579L23.343 16.0044V21.5308C31.7037 20.8414 40.43 21.0313 48.5344 23.3447C50.9735 24.0409 56.8984 25.7486 55.2943 29.391C54.7246 30.685 52.853 31.8853 51.6011 32.4142C50.2656 32.9792 45.5368 33.9071 47.9279 36.2555C49.4964 37.7959 51.6223 37.3213 53.4984 37.7134C55.107 38.0502 56.5829 39.0176 57.2195 40.5953L57.4993 41.496V42.7369H57.5004ZM21.4523 38.4514V2.75118C21.4523 1.7024 19.5606 1.78151 19.5606 2.52515V38.4503H21.4523V38.4514ZM23.3441 5.28949V13.9747L33.6924 9.63265L23.3441 5.29062V5.28949ZM17.67 24.4647C11.2523 25.5937 2.86369 29.1605 2.42893 36.8172C1.94067 45.4176 15.009 47.2824 21.1759 47.8124C29.657 48.5414 40.9518 48.321 49.1809 46.089C51.1953 45.542 57.4491 43.849 55.0992 40.7174C53.8284 39.0233 51.2756 39.6799 49.4039 39.16C47.2312 38.5565 44.6327 36.4544 45.6092 33.8969C46.5858 31.3394 50.0571 31.2874 52.0403 30.0397C54.3166 28.6067 54.0023 27.611 51.7549 26.5125C47.2702 24.3189 39.2986 23.2961 34.3078 23.1074H28.0685L23.3441 23.451V31.0648C25.0898 31.701 27.6638 32.8108 27.9904 34.9265C28.676 39.3702 22.5916 40.5863 19.3889 40.3749C16.0056 40.1523 10.56 37.2218 13.7727 33.3172C14.8061 32.0616 16.2063 31.605 17.67 31.0636V24.4647ZM17.67 33.1499C16.6488 33.3782 14.7749 34.3558 14.7671 35.5741C14.7593 36.7924 16.5808 37.8773 17.67 38.0005V33.1499ZM23.3441 37.9994C24.1913 37.866 25.5101 37.1642 25.9259 36.3866C26.8444 34.6677 24.6539 33.5669 23.3441 33.1488V37.9994Z" fill="white"/>
<path d="M34.8428 32.547C31.4807 29.0797 36.3946 23.7533 40.0343 26.8894C43.9906 30.2991 38.5082 36.3262 34.8428 32.547ZM36.9977 27.9879C35.3411 28.3338 35.1438 31.0473 37.0032 31.6519C39.9986 32.6261 40.4389 27.2692 36.9977 27.9879Z" fill="white"/>
<path d="M9.74018 29.2257C10.554 29.0618 11.2362 29.819 10.8561 30.5852C10.6621 30.9763 9.03565 31.9493 8.54404 32.415C5.93216 34.8877 5.09832 38.3889 8.44372 40.6413C8.971 40.9962 10.6744 41.6731 10.8683 42.0167C11.1994 42.6055 10.7981 43.4802 10.1515 43.5243C9.50497 43.5684 7.44712 42.3083 6.88528 41.8822C2.26348 38.3765 4.58887 32.6941 8.62096 29.9004C8.89519 29.7105 9.44589 29.2856 9.74018 29.2268V29.2257Z" fill="white"/>
</g>
<defs>
<clipPath id="clip0_1276_2318">
<rect width="57" height="50" fill="white" transform="translate(0.5)"/>
</clipPath>
</defs>
</svg>
