<svg width="64" height="50" viewBox="0 0 64 50" fill="none" xmlns="http://www.w3.org/2000/svg">
<g clip-path="url(#clip0_1276_2292)">
<path d="M12.8612 3.85901C12.7669 3.76249 10.5971 4.23525 10.2048 4.24437C8.48429 4.28389 8.02533 1.81064 10.0745 1.37209C11.3144 1.10683 12.8927 0.963174 14.173 0.820282C24.13 -0.294731 34.9923 -0.276489 44.9433 0.896289C45.9841 1.01866 47.8723 1.15851 48.7992 1.46634C50.3445 1.97938 49.9559 4.27553 48.317 4.24209C47.1648 4.21852 45.4869 3.78301 44.2613 3.64088C43.9745 3.60743 43.6234 3.59071 43.3351 3.59299L52.1145 23.9049C54.4407 24.9264 56.7984 26.0985 58.9015 27.5426C60.5487 28.6736 63.1721 30.9446 63.4005 33.0842C63.7194 36.0659 63.1534 39.6405 63.4035 42.6587C63.5652 45.2999 62.1831 47.8082 59.931 49.0972C55.8842 51.4131 50.8911 49.0364 49.8871 44.5216L49.6647 44.4434H16.8788C15.621 49.8976 8.84966 51.9961 5.03649 47.7169C3.55405 46.0539 3.04867 43.8399 3.3519 41.6357C2.05963 41.7292 0.635586 41.8797 0.505311 40.1566C0.475362 39.7614 0.581679 39.4361 0.585422 39.0925C0.634088 34.9327 1.01443 26.99 5.80691 25.5436C8.03431 24.8717 10.5717 25.1742 12.8612 25.2943V18.0737H5.97312V15.3755L12.8612 15.2615V3.85901ZM33.3758 33.5395C33.4492 34.3505 33.3212 35.2633 33.3758 36.0857H44.7187L47.7922 29.0954L37.4563 18.6818C37.3238 18.6818 35.8975 20.3509 35.5845 20.5804C34.2331 21.57 32.5582 19.9389 33.712 18.4515C34.9429 16.8652 37.1471 15.0487 38.619 13.5521C38.9305 13.2359 39.0847 12.8726 39.5399 12.6628C40.63 12.1612 41.8182 12.9745 41.5787 14.2004C41.4252 14.9841 39.9689 15.9744 39.4733 16.6288V16.7793L48.9864 26.3554L49.5898 24.9112L40.213 3.24792C32.0558 2.60643 23.8837 2.69308 15.743 3.47822L15.5671 3.60363L15.5521 15.4416C17.617 16.0223 18.8464 17.1198 19.6558 19.1173C20.7092 21.7182 21.4347 24.5799 22.3114 27.2522C23.844 27.7265 25.3856 28.1833 26.9025 28.71C29.3875 29.5742 33.0891 30.3799 33.3758 33.5395ZM15.5566 18.5282V25.6348L19.1511 26.3181L16.9919 19.8454C16.7395 19.2366 16.2184 18.6392 15.5558 18.529L15.5566 18.5282ZM60.7036 37.5298V33.6155C60.7036 32.9786 58.8319 31.0974 58.3085 30.6505C56.4188 29.0346 54.1218 27.82 51.8359 26.8912L46.7043 38.4054C46.4333 38.6722 46.0874 38.8903 45.6951 38.901L31.7728 38.8911C31.1027 38.755 30.664 38.2663 30.6026 37.5709C30.4955 36.3494 30.7883 34.6895 30.6026 33.5433C30.5285 33.0888 30.1189 32.9048 29.7581 32.7285C28.1431 31.9373 25.8169 31.2259 24.0746 30.6687C19.4873 29.2026 12.8852 27.497 8.10844 27.9538C6.71584 28.0868 5.78819 28.308 5.04398 29.5552C3.4687 32.1949 3.50314 35.9048 3.35339 38.8979H4.70107C7.9527 34.4158 14.7083 35.5521 16.5875 40.7783C16.6811 41.0383 16.7021 41.587 16.9417 41.6349L49.8803 41.6364C50.8769 36.693 56.731 34.4394 60.7044 37.5291L60.7036 37.5298ZM9.55045 38.9192C4.81637 39.5029 4.97135 46.7441 9.60585 47.1811C15.7969 47.7648 15.5431 38.1804 9.55045 38.9192ZM53.6927 40.0646C51.5327 42.2293 52.4132 46.1702 55.3556 47.026C58.9038 48.0582 61.8784 44.4342 60.2087 41.1112C58.9824 38.6722 55.6139 38.1394 53.6935 40.0646H53.6927Z" fill="white"/>
</g>
<defs>
<clipPath id="clip0_1276_2292">
<rect width="63" height="50" fill="white" transform="translate(0.5)"/>
</clipPath>
</defs>
</svg>
