<svg width="40" height="40" viewBox="0 0 40 40" fill="none" xmlns="http://www.w3.org/2000/svg">
<path d="M8.33331 15C8.33331 11.9058 9.56248 8.93832 11.7504 6.7504C13.9383 4.56248 16.9058 3.33331 20 3.33331C23.0942 3.33331 26.0616 4.56248 28.2496 6.7504C30.4375 8.93832 31.6666 11.9058 31.6666 15V25C31.6666 26.5321 31.3649 28.0492 30.7786 29.4646C30.1923 30.8801 29.3329 32.1662 28.2496 33.2496C27.1662 34.3329 25.8801 35.1923 24.4646 35.7786C23.0492 36.3649 21.5321 36.6666 20 36.6666C18.4679 36.6666 16.9508 36.3649 15.5353 35.7786C14.1199 35.1923 12.8338 34.3329 11.7504 33.2496C10.6671 32.1662 9.80769 30.8801 9.22138 29.4646C8.63508 28.0492 8.33331 26.5321 8.33331 25V15Z" stroke="white" stroke-width="1.5"/>
<path d="M20 8.33331V13.3333" stroke="white" stroke-width="1.5" stroke-linecap="round"/>
</svg>
